<svg width="121" height="152" viewBox="0 0 121 152" fill="none" xmlns="http://www.w3.org/2000/svg">
<path d="M0 8C0 5.19974 0 3.79961 0.544967 2.73005C1.02433 1.78924 1.78924 1.02433 2.73005 0.544967C3.79961 0 5.19974 0 8 0H113C115.8 0 117.2 0 118.27 0.544967C119.211 1.02433 119.976 1.78924 120.455 2.73005C121 3.79961 121 5.19974 121 8V144C121 146.8 121 148.2 120.455 149.27C119.976 150.211 119.211 150.976 118.27 151.455C117.2 152 115.8 152 113 152H8C5.19974 152 3.79961 152 2.73005 151.455C1.78924 150.976 1.02433 150.211 0.544967 149.27C0 148.2 0 146.8 0 144V8Z" fill="#FF9A44"/>
<path d="M32.7689 34.8047C32.7689 36.3537 31.5132 37.6094 29.9642 37.6094H26.7424C25.6878 37.6094 24.8591 37.8102 24.2565 38.2118C23.6539 38.6133 23.3525 39.1906 23.3525 39.9435C23.3525 40.6965 23.7166 41.2612 24.4448 41.6376C25.173 41.989 26.3783 42.2275 28.0607 42.3529C32.6057 42.629 34.8781 44.411 34.8781 47.6988C34.8781 49.3051 34.2755 50.6604 33.0702 51.7647C31.89 52.869 30.3834 53.4212 28.5504 53.4212C27.5747 53.4212 26.6778 53.2927 25.8595 53.0357C24.7554 52.689 23.2772 53.408 23.2772 54.5653C23.2772 55.3057 22.677 55.9059 21.9366 55.9059H21.8271C21.0262 55.9059 20.377 55.2566 20.377 54.4558V48.9057C20.377 48.0312 21.0858 47.3224 21.9603 47.3224C22.6171 47.3224 23.187 47.7413 23.5364 48.2975C23.934 48.9307 24.4628 49.4841 25.1228 49.9576C26.1272 50.6353 27.2321 50.9741 28.4374 50.9741C29.4669 50.9741 30.3081 50.6729 30.9609 50.0706C31.6138 49.4682 31.9402 48.6902 31.9402 47.7365C31.9402 45.9796 30.4838 45.0133 27.5711 44.8376C22.775 44.6118 20.377 43.0055 20.377 40.0188C20.377 38.4878 20.9545 37.2831 22.1096 36.4047C23.2646 35.5263 24.7838 35.0871 26.6671 35.0871H28.2498C29.1022 35.0871 29.7933 34.396 29.7933 33.5435C29.7933 32.6911 29.1022 32 28.2498 32H18.3236C17.6271 32 17.0624 31.4354 17.0624 30.7388C17.0624 30.0423 17.6271 29.4776 18.3236 29.4776H35.5756C36.2721 29.4776 36.8367 30.0423 36.8367 30.7388C36.8367 31.4354 36.2721 32 35.5756 32H34.8028C33.6795 32 32.7689 32.9106 32.7689 34.0339V34.8047Z" fill="black"/>
<path d="M25.0036 25.6C24.6019 25.2235 24.401 24.7467 24.401 24.1694C24.401 23.5922 24.6019 23.1027 25.0036 22.7012C25.3803 22.2996 25.8574 22.0988 26.4349 22.0988C27.0124 22.0988 27.5021 22.2996 27.9039 22.7012C28.3056 23.1027 28.5065 23.5922 28.5065 24.1694C28.5065 24.7467 28.3056 25.2235 27.9039 25.6C27.5021 25.9765 27.0124 26.1647 26.4349 26.1647C25.8574 26.1647 25.3803 25.9765 25.0036 25.6Z" fill="black"/>
<path d="M44.9892 19.8776C47.6007 19.8776 50.0113 20.2165 52.221 20.8941C54.2518 21.5099 56.4588 22.3744 58.8422 23.4876C59.2856 23.6947 59.5657 24.1418 59.5657 24.6313C59.5657 25.5958 58.5331 26.2131 57.6649 25.7931C53.1453 23.6063 48.9452 22.5129 45.0646 22.5129C43.7839 22.5129 42.7795 22.8643 42.0513 23.5671C41.3482 24.2447 40.9967 25.1859 40.9967 26.3906V27.3119C40.9967 28.508 41.9663 29.4776 43.1625 29.4776H44.067C44.7636 29.4776 45.3282 30.0423 45.3282 30.7388C45.3282 31.4354 44.7636 32 44.067 32H43.1625C41.9663 32 40.9967 32.9696 40.9967 34.1658V52.1781C40.9967 52.9894 40.339 53.6471 39.5277 53.6471C38.7165 53.6471 38.0588 52.9894 38.0588 52.1781V34.1846C38.0588 32.9781 37.0807 32 35.8742 32H34.9508C34.2543 32 33.6896 31.4354 33.6896 30.7388C33.6896 30.0423 34.2543 29.4776 34.9508 29.4776H35.8742C37.0807 29.4776 38.0588 28.4996 38.0588 27.2931V26.3529C38.0588 24.4204 38.6991 22.8643 39.9797 21.6847C41.2604 20.48 42.9302 19.8776 44.9892 19.8776Z" fill="black"/>
<path d="M58.7615 34.8424C58.7615 36.4121 57.4889 37.6847 55.9192 37.6847H52.2077C51.3038 37.6847 50.5505 37.8729 49.9478 38.2494C49.3452 38.6259 49.0438 39.2282 49.0438 40.0565C49.0438 40.9098 49.4205 41.5373 50.1738 41.9388C50.9271 42.3153 52.2454 42.5537 54.1287 42.6541C58.6485 42.7796 60.9084 44.5114 60.9084 47.8494C60.8833 49.5812 60.1802 50.9867 58.7992 52.0659C57.4432 53.1451 55.5976 53.6847 53.2624 53.6847C50.8519 53.6847 48.684 53.2403 46.7587 52.3515C46.3517 52.1636 46.1059 51.748 46.1059 51.2998C46.1059 50.3519 47.1576 49.7584 48.0291 50.1311C49.6957 50.8437 51.4402 51.2 53.2624 51.2C54.6936 51.2 55.8236 50.9114 56.6522 50.3341C57.4809 49.7569 57.8952 48.9412 57.8952 47.8871C57.8952 46.9584 57.5186 46.2808 56.7652 45.8541C56.0119 45.4275 54.7564 45.1765 52.9987 45.1012C48.3784 44.9004 46.0683 43.2439 46.0683 40.1318C46.0683 38.5255 46.6333 37.2957 47.7632 36.4424C48.8932 35.589 50.337 35.1624 52.0947 35.1624H54.2424C55.1157 35.1624 55.8236 34.4544 55.8236 33.5812C55.8236 32.7079 55.1157 32 54.2424 32H44.1656C43.469 32 42.9044 31.4354 42.9044 30.7388C42.9044 30.0423 43.469 29.4776 44.1656 29.4776H62.9241C63.6207 29.4776 64.1853 30.0423 64.1853 30.7388C64.1853 31.4354 63.6207 32 62.9241 32H61.4734C59.9757 32 58.7615 33.2142 58.7615 34.7119V34.8424Z" fill="black"/>
<path d="M73.6199 48.9412C71.2847 48.9412 69.2758 48.1506 67.5935 46.5694C66.9688 45.964 66.4352 45.2678 65.9925 44.4806C64.6585 42.1085 66.9543 39.848 69.1001 38.1741C70.1547 37.371 70.682 36.4298 70.682 35.3506C70.682 34.9455 70.6445 34.5586 70.5695 34.1898C70.3357 33.0398 70.9203 35.9149 70.899 35.8268C70.5709 34.4676 67.6172 32.054 66.22 32.0033C66.1293 32 67.6768 32 67.0578 32H63.0542C62.3576 32 61.793 31.4354 61.793 30.7388C61.793 30.0423 62.3576 29.4776 63.0542 29.4776H85.7299C86.4265 29.4776 86.9911 30.0423 86.9911 30.7388C86.9911 31.4354 86.4265 32 85.7299 32H84.8254C83.6292 32 82.6596 32.9696 82.6596 34.1658V52.1781C82.6596 52.9894 82.0019 53.6471 81.1906 53.6471C80.3794 53.6471 79.7217 52.9894 79.7217 52.1781V51.8366C79.7217 50.0906 76.7529 48.6519 75.0194 48.861C74.5762 48.9144 74.1097 48.9412 73.6199 48.9412ZM73.8836 46.4188C75.6413 46.4188 77.0475 45.942 78.1021 44.9882C79.1818 44.0094 79.7217 42.7043 79.7217 41.0729V34.4667C79.7217 33.1044 78.6173 32 77.255 32H76.3566C74.7785 32 73.6199 33.923 73.6199 35.5012C73.6199 37.2689 72.9579 38.7148 71.6338 39.8387C69.8838 41.3241 68.3362 43.6078 70.0794 45.1012C71.134 45.9796 72.4021 46.4188 73.8836 46.4188Z" fill="black"/>
<path d="M84.5805 30.7388C84.5805 30.0423 85.1452 29.4776 85.8417 29.4776H103.433C104.129 29.4776 104.694 30.0423 104.694 30.7388C104.694 31.4354 104.129 32 103.433 32H102.528C101.332 32 100.362 32.9696 100.362 34.1658V52.1593C100.362 52.981 99.6962 53.6471 98.8745 53.6471C98.0529 53.6471 97.3868 52.981 97.3868 52.1593V47.4541C97.3868 46.3456 97.3868 45.7913 97.2992 45.3297C96.9164 43.3107 95.3372 41.7315 93.3182 41.3487C92.8566 41.2612 92.3023 41.2612 91.1938 41.2612H90.72C90.268 41.2612 89.9541 41.3741 89.7784 41.6C89.6026 41.8259 89.5147 42.2024 89.5147 42.7294C89.5147 43.093 89.5427 43.4652 89.5986 43.8461C89.7215 44.6832 89.1304 45.5153 88.2843 45.5153C87.8149 45.5153 87.3803 45.2522 87.196 44.8205C86.7079 43.6773 86.4638 42.6038 86.4638 41.6C86.4638 39.7176 87.5561 38.7765 89.7407 38.7765H93.9985C95.8698 38.7765 97.3868 37.2595 97.3868 35.3882C97.3868 33.517 95.8698 32 93.9985 32H85.8417C85.1452 32 84.5805 31.4354 84.5805 30.7388Z" fill="black"/>
<path d="M28.588 56.5835C32.0532 56.5835 35.1795 56.9349 37.9667 57.6376C40.5294 58.2551 43.2068 59.1123 45.9988 60.2091C46.4952 60.4041 46.8181 60.8853 46.8181 61.4186C46.8181 62.3765 45.8223 63.0127 44.9384 62.6435C39.4729 60.3604 34.0479 59.2188 28.6633 59.2188C27.3074 59.2188 26.2528 59.5702 25.4995 60.2729C24.7461 60.9506 24.3695 61.9043 24.3695 63.1341V64.0178C24.3695 65.2139 25.3391 66.1835 26.5353 66.1835H27.4398C28.1364 66.1835 28.701 66.7482 28.701 67.4447C28.701 68.1412 28.1364 68.7059 27.4398 68.7059H26.5353C25.3391 68.7059 24.3695 69.6755 24.3695 70.8716V88.884C24.3695 89.6953 23.7118 90.3529 22.9005 90.3529C22.0893 90.3529 21.4316 89.6953 21.4316 88.884V70.8905C21.4316 69.684 20.4535 68.7059 19.247 68.7059H18.3236C17.6271 68.7059 17.0624 68.1412 17.0624 67.4447C17.0624 66.7482 17.6271 66.1835 18.3236 66.1835H19.247C20.4535 66.1835 21.4316 65.2055 21.4316 63.9989V63.0965C21.4316 61.1388 22.0845 59.5702 23.3902 58.3906C24.6959 57.1859 26.4285 56.5835 28.588 56.5835Z" fill="black"/>
<path d="M37.3508 84.8941C39.4127 84.8941 39.7457 82.5078 38.2666 81.0713L35.814 78.6893C34.3811 77.2976 32.04 77.5884 32.04 79.5859C32.04 81.142 32.5296 82.422 33.5089 83.4259C34.5133 84.4047 35.794 84.8941 37.3508 84.8941ZM49.8752 66.1835C50.5717 66.1835 51.1363 66.7482 51.1363 67.4447C51.1363 68.1412 50.5717 68.7059 49.8752 68.7059H48.9517C47.7452 68.7059 46.7671 69.684 46.7671 70.8905V88.884C46.7671 89.6953 46.1095 90.3529 45.2982 90.3529C44.4869 90.3529 43.8293 89.6953 43.8293 88.884V87.8143C43.8293 86.6615 42.0776 85.9311 41.042 86.4376C39.8618 87.0149 38.5435 87.3035 37.0871 87.3035C34.9026 87.3035 33.0318 86.5882 31.475 85.1576C29.9433 83.702 29.1774 81.8322 29.1774 79.5482C29.1774 77.2643 29.9433 75.3945 31.475 73.9388C33.0318 72.458 35.0156 71.7176 37.4261 71.7176C38.1386 71.7176 38.8701 71.7808 39.6205 71.9071C40.1694 71.9995 40.5524 72.488 40.5524 73.0446C40.5524 73.8577 39.7562 74.4306 38.9527 74.3068C38.5012 74.2372 38.0552 74.2023 37.6145 74.2023C36.1109 74.2023 35.7715 75.9158 36.8452 76.9684L39.6788 79.7465C41.212 81.2496 43.8293 80.98 43.8293 78.8329V76.7059C43.8293 73.9056 43.8293 72.5055 43.2843 71.4359C42.8049 70.4951 42.04 69.7302 41.0992 69.2508C40.0296 68.7059 38.6295 68.7059 35.8293 68.7059H27.5384C26.8418 68.7059 26.2772 68.1412 26.2772 67.4447C26.2772 66.7482 26.8418 66.1835 27.5384 66.1835H49.8752Z" fill="black"/>
<path d="M60.5238 85.6471C58.1886 85.6471 56.1798 84.8565 54.4974 83.2753C53.8728 82.6699 53.3391 81.9736 52.8964 81.1864C51.5624 78.8144 53.8582 76.5539 56.004 74.88C57.0586 74.0769 57.5859 73.1357 57.5859 72.0565C57.5859 71.6514 57.5485 71.2645 57.4735 70.8957C57.2397 69.7457 57.8242 72.6208 57.8029 72.5326C57.4748 71.1735 54.5211 68.7599 53.1239 68.7092C53.0332 68.7059 54.5807 68.7059 53.9617 68.7059H49.9581C49.2616 68.7059 48.6969 68.1412 48.6969 67.4447C48.6969 66.7482 49.2616 66.1835 49.9581 66.1835H72.6339C73.3304 66.1835 73.895 66.7482 73.895 67.4447C73.895 68.1412 73.3304 68.7059 72.6339 68.7059H71.7293C70.5332 68.7059 69.5635 69.6755 69.5635 70.8716V88.884C69.5635 89.6953 68.9059 90.3529 68.0946 90.3529C67.2833 90.3529 66.6256 89.6953 66.6256 88.884V88.5425C66.6256 86.7965 63.6568 85.3577 61.9234 85.5668C61.4801 85.6203 61.0136 85.6471 60.5238 85.6471ZM60.7875 83.1247C62.5452 83.1247 63.9514 82.6479 65.006 81.6941C66.0858 80.7153 66.6256 79.4102 66.6256 77.7788V71.1726C66.6256 69.8103 65.5212 68.7059 64.1589 68.7059H63.2606C61.6824 68.7059 60.5238 70.6289 60.5238 72.2071C60.5238 73.9748 59.8618 75.4207 58.5377 76.5446C56.7877 78.03 55.2401 80.3136 56.9833 81.8071C58.0379 82.6855 59.306 83.1247 60.7875 83.1247Z" fill="black"/>
<path d="M73.8518 80.3398C73.611 80.0216 73.4807 79.6335 73.4807 79.2344C73.4807 78.2226 74.301 77.4024 75.3128 77.4024H76.0043C79.0677 77.4024 80.5995 76.1976 80.5995 73.7882V73.2634C80.5995 70.7464 78.559 68.7059 76.042 68.7059H72.7456C72.0491 68.7059 71.4845 68.1412 71.4845 67.4447C71.4845 66.7482 72.0491 66.1835 72.7456 66.1835H86.0427C86.7393 66.1835 87.3039 66.7482 87.3039 67.4447C87.3039 68.1412 86.7393 68.7059 86.0427 68.7059H85.4206C84.3805 68.7059 83.5374 69.549 83.5374 70.5891V74.0518C83.5374 75.8337 82.985 77.2392 81.8801 78.2682C80.7753 79.2722 79.2937 79.7992 77.4356 79.8494C77.2656 79.8494 77.1692 80.044 77.272 80.1792L83.2693 88.068C83.9817 89.0052 83.3133 90.3529 82.1361 90.3529C81.6902 90.3529 81.27 90.144 81.0009 89.7884L73.8518 80.3398Z" fill="black"/>
<path d="M47.7597 104.151C47.7597 104.847 47.195 105.412 46.4985 105.412H35.4423C34.5899 105.412 33.8988 106.103 33.8988 106.955C33.8988 108.346 35.8705 109.271 37.2459 109.065C37.5859 109.014 37.9392 108.988 38.3057 108.988C40.3647 108.988 42.0346 109.616 43.3152 110.871C44.5958 112.125 45.2361 113.769 45.2361 115.802C45.2361 117.986 44.5205 119.73 43.0892 121.035C41.6579 122.34 39.8751 122.993 37.7407 122.993C37.2384 122.993 36.8744 122.549 36.8744 122.047V121.154C36.8744 120.761 37.2354 120.471 37.6277 120.471C38.9585 120.471 40.0634 120.056 40.9423 119.228C41.8211 118.4 42.2605 117.258 42.2605 115.802C42.2605 114.522 41.8588 113.481 41.0553 112.678C40.2768 111.849 39.2473 111.435 37.9667 111.435C36.8618 111.435 35.9076 111.824 35.1041 112.602C34.3006 113.355 33.8988 114.309 33.8988 115.464V125.571C33.8988 126.393 33.2327 127.059 32.411 127.059C31.5894 127.059 30.9233 126.393 30.9233 125.571V125.506C30.9233 124.106 28.9101 123.133 27.5214 123.31C27.211 123.35 26.8886 123.369 26.5541 123.369C24.495 123.369 22.8252 122.755 21.5446 121.525C20.264 120.27 19.6237 118.626 19.6237 116.593C19.6237 114.409 20.3393 112.665 21.7706 111.36C23.2019 110.03 24.9721 109.365 27.0814 109.365C27.6104 109.365 27.9477 109.821 27.9477 110.35V111.245C27.9477 111.616 27.6032 111.925 27.2321 111.925C25.8761 111.925 24.7587 112.339 23.8798 113.167C23.001 113.995 22.5616 115.125 22.5616 116.555C22.5616 117.835 22.9633 118.889 23.7668 119.718C24.5704 120.546 25.6125 120.96 26.8931 120.96C27.9979 120.96 28.9396 120.571 29.718 119.793C30.5215 119.015 30.9233 118.049 30.9233 116.894V112.342C30.9233 110.546 30.9233 109.648 30.6952 108.919C30.2057 107.354 28.9806 106.129 27.4163 105.64C26.6872 105.412 25.7891 105.412 23.9928 105.412H18.3236C17.6271 105.412 17.0624 104.847 17.0624 104.151C17.0624 103.454 17.6271 102.889 18.3236 102.889H46.4985C47.195 102.889 47.7597 103.454 47.7597 104.151Z" fill="black"/>
<path d="M30.1532 99.0118C29.7514 98.6353 29.5505 98.1584 29.5505 97.5812C29.5505 97.0039 29.7514 96.5145 30.1532 96.1129C30.5298 95.7114 31.0069 95.5106 31.5845 95.5106C32.162 95.5106 32.6517 95.7114 33.0534 96.1129C33.4552 96.5145 33.6561 97.0039 33.6561 97.5812C33.6561 98.1584 33.4552 98.6353 33.0534 99.0118C32.6517 99.3882 32.162 99.5765 31.5845 99.5765C31.0069 99.5765 30.5298 99.3882 30.1532 99.0118Z" fill="black"/>
<path d="M59.7932 112.678V109.819C59.7932 107.385 57.8202 105.412 55.3863 105.412C52.9525 105.412 50.9795 107.385 50.9795 109.819V112.979C50.9795 114.761 51.3059 116.053 51.9588 116.856C52.6117 117.635 53.6161 118.024 54.972 118.024C56.3029 118.024 57.4328 117.547 58.3619 116.593C59.3161 115.614 59.7932 114.309 59.7932 112.678ZM65.8391 102.889C66.5356 102.889 67.1003 103.454 67.1003 104.151C67.1003 104.847 66.5356 105.412 65.8391 105.412H64.9345C63.7384 105.412 62.7688 106.381 62.7688 107.578V125.571C62.7688 126.393 62.1026 127.059 61.281 127.059C60.4593 127.059 59.7932 126.393 59.7932 125.571V123.838C59.7932 121.994 56.6281 120.412 54.7837 120.433C50.2638 120.433 48.0039 117.936 48.0039 112.941V107.107C48.0039 106.171 47.2451 105.412 46.309 105.412H45.8752C45.1787 105.412 44.614 104.847 44.614 104.151C44.614 103.454 45.1787 102.889 45.8752 102.889H65.8391Z" fill="black"/>
<path d="M64.6797 104.151C64.6797 103.454 65.2443 102.889 65.9409 102.889H83.5318C84.2283 102.889 84.793 103.454 84.793 104.151C84.793 104.847 84.2283 105.412 83.5318 105.412H82.6272C81.4311 105.412 80.4615 106.381 80.4615 107.578V125.571C80.4615 126.393 79.7954 127.059 78.9737 127.059C78.152 127.059 77.4859 126.393 77.4859 125.571V120.866C77.4859 119.757 77.4859 119.203 77.3984 118.741C77.0155 116.722 75.4364 115.143 73.4174 114.76C72.9557 114.673 72.4015 114.673 71.293 114.673H70.8191C70.3671 114.673 70.0533 114.786 69.8775 115.012C69.7017 115.238 69.6138 115.614 69.6138 116.141C69.6138 116.505 69.6418 116.877 69.6977 117.258C69.8207 118.095 69.2296 118.927 68.3835 118.927C67.9141 118.927 67.4795 118.664 67.2952 118.232C66.807 117.089 66.563 116.016 66.563 115.012C66.563 113.129 67.6552 112.188 69.8398 112.188H74.0977C75.9689 112.188 77.4859 110.671 77.4859 108.8C77.4859 106.929 75.9689 105.412 74.0977 105.412H65.9409C65.2443 105.412 64.6797 104.847 64.6797 104.151Z" fill="black"/>
<path d="M89.6606 100.705C89.6606 101.911 90.6387 102.889 91.8452 102.889H92.7687C93.4652 102.889 94.0298 103.454 94.0298 104.151C94.0298 104.847 93.4652 105.412 92.7687 105.412H91.8641C90.668 105.412 89.6983 106.381 89.6983 107.578V125.59C89.6983 126.401 89.0406 127.059 88.2294 127.059C87.4181 127.059 86.7604 126.401 86.7604 125.59V107.596C86.7604 106.39 85.7823 105.412 84.5758 105.412H83.6524C82.9559 105.412 82.3912 104.847 82.3912 104.151C82.3912 103.454 82.9559 102.889 83.6524 102.889H84.5382C85.7239 102.889 86.6851 101.928 86.6851 100.742V99.7271C86.6851 98.4973 86.3461 97.5561 85.6681 96.9035C85.0153 96.251 84.1489 95.9247 83.0692 95.9247C81.9895 95.9247 81.1357 96.251 80.508 96.9035C79.8802 97.531 79.5663 98.4722 79.5663 99.7271C79.5663 100.101 79.2629 100.405 78.8887 100.405H77.3814C76.9655 100.405 76.6284 100.068 76.6284 99.6518C76.6284 97.5435 77.2436 95.9623 78.474 94.9082C79.6793 93.8541 81.211 93.3271 83.0692 93.3271C84.9525 93.3271 86.5219 93.8541 87.7774 94.9082C89.0329 95.9623 89.6606 97.5435 89.6606 99.6518V100.705Z" fill="black"/>
</svg>
