<svg width="89" height="92" viewBox="0 0 89 92" fill="none" xmlns="http://www.w3.org/2000/svg">
<path d="M0 59V-3.33786e-06H6V59H0ZM15 59V-3.33786e-06H18V59H15ZM27 59V-3.33786e-06H30V59H27ZM10.2 88.7H14.8V69.9H10.5V67.7H22V69.9H17.4V88.7H22.2V90.9H10.2V88.7ZM29.0078 59V-3.33786e-06H32.0078V59H29.0078ZM41.0078 59V-3.33786e-06H44.0078V59H41.0078ZM47.0078 59V-3.33786e-06H53.0078V59H47.0078ZM38.0078 67.7H44.6078C47.1411 67.7 49.0411 68.2 50.3078 69.2C51.6411 70.2 52.3078 71.6 52.3078 73.4C52.3078 74.5333 52.0078 75.5667 51.4078 76.5C50.7411 77.4333 49.8745 78.1 48.8078 78.5C50.1411 78.9667 51.2078 79.7333 52.0078 80.8C52.8078 81.9333 53.2078 83.1333 53.2078 84.4C53.2078 86.4 52.4745 88 51.0078 89.2C49.6078 90.3333 47.4411 90.9 44.5078 90.9H38.0078V67.7ZM44.2078 77.3C47.8745 77.3 49.7078 76.0667 49.7078 73.6C49.7078 72.5333 49.2745 71.6667 48.4078 71C47.6078 70.2667 46.3411 69.9 44.6078 69.9H40.5078V77.3H44.2078ZM45.0078 88.6C48.6078 88.6 50.4078 87.1333 50.4078 84.2C50.4078 81.0667 48.3745 79.5 44.3078 79.5H40.5078V88.6H45.0078ZM58.0156 59V-3.33786e-06H61.0156V59H58.0156ZM70.0156 59V-3.33786e-06H73.0156V59H70.0156ZM82.0156 59V-3.33786e-06H88.0156V59H82.0156ZM75.8156 91.3C74.0823 91.3 72.549 90.8667 71.2156 90C69.8156 89.1333 68.7156 87.8333 67.9156 86.1C67.1156 84.3 66.7156 82.0667 66.7156 79.4C66.7156 76.6 67.149 74.3 68.0156 72.5C68.8823 70.7667 69.9823 69.5 71.3156 68.7C72.649 67.9667 74.0823 67.6 75.6156 67.6C77.2823 67.6 78.7156 68 79.9156 68.8C81.1156 69.6 82.0156 70.7 82.6156 72.1L80.4156 73.2L80.1156 73.3L80.0156 73.1V72.8C80.0156 72.5333 79.849 72.1667 79.5156 71.7C78.9823 70.9667 78.3823 70.4333 77.7156 70.1C77.049 69.7667 76.349 69.6 75.6156 69.6C73.6156 69.6 72.049 70.4667 70.9156 72.2C69.849 73.8667 69.3156 76.2333 69.3156 79.3C69.3156 81.1667 69.5823 82.8667 70.1156 84.4C70.7156 85.8667 71.4823 87 72.4156 87.8C73.4156 88.6 74.5156 89 75.7156 89C76.649 89 77.5156 88.7667 78.3156 88.3C79.1823 87.7667 79.8823 87.0667 80.4156 86.2L82.3156 87.5C81.5156 88.7667 80.6156 89.7 79.6156 90.3C78.549 90.9667 77.2823 91.3 75.8156 91.3Z" fill="white"/>
</svg>
